<?xml version="1.0" encoding="utf-8"?>
<!-- Generator: Adobe Illustrator 27.8.0, SVG Export Plug-In . SVG Version: 6.00 Build 0)  -->
<svg version="1.1" id="Layer_1" xmlns="http://www.w3.org/2000/svg" xmlns:xlink="http://www.w3.org/1999/xlink" x="0px" y="0px"
	 viewBox="0 0 1125 302" style="enable-background:new 0 0 1125 302;" xml:space="preserve">
<style type="text/css">
	.st0{fill-rule:evenodd;clip-rule:evenodd;fill:#FF9900;}
	.st1{fill-rule:evenodd;clip-rule:evenodd;}
</style>
<g>
	<g>
		<path class="st0" d="M678.7,234.1c-56.3,41.5-138,63.6-208.2,63.6c-98.7,0-187.3-36.3-254.2-97.1c-5.1-4.8-0.6-11.2,5.7-7.6
			c72.3,42.1,161.9,67.5,254.5,67.5c62.3,0,131-13,194-39.6C680.2,216.9,688.1,227.2,678.7,234.1z"/>
		<path class="st0" d="M702.3,207.5c-7.3-9.1-47.5-4.2-65.7-2.1c-5.4,0.6-6.4-4.2-1.5-7.6c32.4-22.7,85-16,91.1-8.5
			c6.1,7.6-1.5,60.5-31.8,85.9c-4.5,3.9-9.1,1.8-7-3.3C694.1,254.7,709.6,216.6,702.3,207.5z"/>
	</g>
	<g>
		<path class="st1" d="M637.9,37.7V15.6c0-3.3,2.4-5.4,5.4-5.4H742c3,0,5.7,2.4,5.7,5.4v18.8c0,3-2.7,7.3-7.6,13.9l-50.8,72.9
			c19.1-0.3,39,2.4,56.3,12.1c3.9,2.1,4.8,5.4,5.1,8.5v23.6c0,3.3-3.6,7-7.3,5.1c-30.3-16-70.5-17.6-104.1,0.3c-3.3,1.8-7-1.8-7-5.1
			v-22.4c0-3.6,0-9.7,3.6-15.1l59-84.7h-51.4C640.3,43.2,637.9,41.1,637.9,37.7z"/>
		<path class="st1" d="M278.3,175.1h-30c-2.7-0.3-5.1-2.4-5.4-5.1v-154c0-3,2.7-5.4,5.7-5.4h27.8c3,0,5.1,2.4,5.4,5.1v20h0.6
			c7.3-19.4,20.9-28.4,39.3-28.4c18.8,0,30.6,9.1,39,28.4c7.3-19.4,23.9-28.4,41.5-28.4c12.7,0,26.3,5.1,34.8,16.9
			c9.4,13,7.6,31.8,7.6,48.1v97.1c0,3-2.7,5.4-5.7,5.4h-30c-3-0.3-5.4-2.7-5.4-5.4V87.7c0-6.4,0.6-22.7-0.9-28.7
			c-2.1-10.3-9.1-13.3-17.6-13.3c-7.3,0-14.8,4.8-17.9,12.7c-3,7.9-2.7,20.6-2.7,29.4v81.7c0,3-2.7,5.4-5.7,5.4h-30
			c-3-0.3-5.4-2.7-5.4-5.4V87.7c0-17.2,2.7-42.4-18.5-42.4c-21.5,0-20.6,24.5-20.6,42.4v81.7C284.1,172.7,281.4,175.1,278.3,175.1z"
			/>
		<path class="st1" d="M832.4,7.2c44.5,0,68.7,38.1,68.7,86.9c0,46.9-26.6,84.1-68.7,84.1c-43.6,0-67.5-38.1-67.5-85.9
			C765,44.7,789.2,7.2,832.4,7.2z M832.7,38.6c-22.1,0-23.6,30.3-23.6,49s-0.3,59,23.3,59c23.3,0,24.2-32.4,24.2-52.1
			c0-13-0.6-28.4-4.5-40.9C849.1,42.9,842.4,38.6,832.7,38.6z"/>
		<path class="st1" d="M958.9,175.1h-30c-3-0.3-5.4-2.7-5.4-5.4v-154c0.3-2.7,2.7-5.1,5.7-5.1h27.8c2.7,0,4.8,1.8,5.4,4.2v23.6h0.6
			c8.5-21.2,20.3-31.2,40.9-31.2c13.3,0,26.6,4.8,35.1,18.2c7.9,12.4,7.9,33,7.9,47.8V170c-0.3,2.7-2.7,4.8-5.7,4.8h-30
			c-2.7-0.3-5.1-2.1-5.4-4.8V86.5c0-16.9,1.8-41.5-18.8-41.5c-7.3,0-13.9,4.8-17.2,12.4c-4.2,9.4-4.8,18.8-4.8,29.1v82.9
			C964.7,172.7,962,175.1,958.9,175.1z"/>
		<path class="st1" d="M559.2,101.6c0,11.8,0.3,21.5-5.7,31.8c-4.8,8.5-12.4,13.6-20.9,13.6c-11.5,0-18.2-8.8-18.2-21.8
			c0-25.4,23-30.3,44.5-30.3v6.7H559.2z M589.4,174.8c-2.1,1.8-4.8,1.8-7,0.6c-10-8.2-11.8-12.1-17.2-20
			c-16.3,16.6-28.1,21.8-49.3,21.8c-25.1,0-44.8-15.7-44.8-46.6c0-24.2,13.3-40.9,32.1-49c16.3-7.3,39-8.5,56.3-10.3v-4.2
			c0-7.3,0.6-15.4-3.6-21.8c-3.6-5.4-10.6-7.9-16.9-7.9c-11.5,0-21.5,5.7-24.2,18.2c-0.6,2.7-2.4,5.4-5.1,5.4l-29.1-3
			c-2.4-0.6-5.1-2.4-4.5-6.4c6.7-35.4,38.4-46,67.2-46c14.5,0,33.6,3.9,45.1,14.8c14.5,13.6,13.3,31.8,13.3,51.7v46.6
			c0,13.9,5.7,20.3,11.2,27.8c1.8,2.7,2.4,6.1,0,7.9C606.4,160,595.5,169.4,589.4,174.8L589.4,174.8z"/>
		<path class="st1" d="M166.1,101.6c0,11.8,0.3,21.5-5.7,31.8c-4.8,8.5-12.4,13.6-20.9,13.6c-11.5,0-18.2-8.8-18.2-21.8
			c0-25.4,23-30.3,44.5-30.3v6.7H166.1z M196.3,174.8c-2.1,1.8-4.8,1.8-7,0.6c-10-8.2-11.8-12.1-17.2-20
			c-16.3,16.6-28.1,21.8-49.3,21.8c-25.1,0-44.8-15.7-44.8-46.6c0-24.2,13.3-40.9,32.1-49c16.3-7.3,39-8.5,56.3-10.3v-4.2
			c0-7.3,0.6-15.4-3.6-21.8c-3.6-5.4-10.6-7.9-16.9-7.9c-11.5,0-21.5,5.7-24.2,18.2c-0.6,2.7-2.4,5.4-5.1,5.4l-29.1-3
			c-2.4-0.6-5.1-2.4-4.5-6.4c6.7-35.4,38.4-46,67.2-46c14.5,0,33.6,3.9,45.1,14.8c14.5,13.6,13.3,31.8,13.3,51.7v46.6
			c0,13.9,5.7,20.3,11.2,27.8c1.8,2.7,2.4,6.1,0,7.9C213.3,160,202.4,169.4,196.3,174.8L196.3,174.8z"/>
	</g>
</g>
</svg>
