<?xml version="1.0" encoding="utf-8"?>
<!-- Generator: Adobe Illustrator 27.8.0, SVG Export Plug-In . SVG Version: 6.00 Build 0)  -->
<svg version="1.1" id="Capa_1" xmlns="http://www.w3.org/2000/svg" xmlns:xlink="http://www.w3.org/1999/xlink" x="0px" y="0px"
	 viewBox="0 0 1125 302" style="enable-background:new 0 0 1125 302;" xml:space="preserve">
<style type="text/css">
	.st0{fill-rule:evenodd;clip-rule:evenodd;fill:#D80909;}
</style>
<g>
	<path class="st0" d="M515.4,113.7c8.8,0,24.1-4.7,27.1,2.5c3.6,9-8,13.8-12,18.1c-9.3,9.9-14.3,23.6-32.2,24.8
		c-15.4,39.8-29.9,80.4-44.2,122.8c-2,6-3.3,14.3-9,14.6c-5,0.3-7.4-5.7-10.4-8.6c-5.2-5.2-13.8-9.3-15.1-15.4
		c-0.8-4.1,1.3-10.1,2.5-14.6c8.3-29.7,19.8-60.4,29.6-88.1c-17,2.8-35.5,7.7-53.3,11.2c-10.5,26.9-20.8,55-31,83.8
		c-2.7,7.7-7.1,22.8-17.6,19.3c-9.3-3-0.9-20.8,0.5-24.8c9-25.8,17.3-50.5,27.1-74.7c-3.1-1.4-6.8-1.7-9.4-3.5
		c-4.9-3-8.3-10.9-14.2-14.6c-4.9-3.1-14.3-4.7-12.4-12.9c0.8-3.5,7.9-5.3,11.6-6.4c14.3-4.2,28.3-7.7,42.5-11.2
		c13.7-34,28.2-71.2,42.5-106.2c2-5,3.8-10.9,6.4-14.6c2.4-3.1,10.1-9.3,15.4-5.7c4.1,2.8,1.3,12.4-0.5,16.4
		c-14.2,34.9-28.3,69.5-41.7,104.4c17.5-3.5,34.8-7.1,52.4-10.4c9.6-24.7,22.5-54.6,33.5-80.7c3.1-7.5,6.6-21.7,12.9-24.8
		c3.3-1.7,10.4-3,15.1-4.7C536,8,541.3,5.4,546.1,5c16-1.3,2,23.9,0,29.3C535.8,61.3,526.1,87.5,515.4,113.7z"/>
	<path class="st0" d="M527,208.7c0.6,3.9,2.5,6.6,3,10.7c2.8-1.7,13.2-9.4,15.1-0.8c1.6,7.5-5.8,12.9-9,18.1
		c1.4,4.6,5.3,10.7,2.2,15.9c-5.5,2.8-9.8-1.6-10.7-6c-4.4,2.7-7.5,6.1-12.9,6.9c-13.5,2-20.8-6.6-21.1-18.1
		c-0.3-16.2,12.7-23.6,19.3-32.7c-2.2-7.1-4.1-11.6-3.5-17.6c2.2-18.9,33.8-19.5,31,2.2C539.1,196.6,531.1,201,527,208.7z
		 M521.8,192.7c2.5-0.6,5.8-3.9,5.7-8.6C522.8,179.1,519.3,187.6,521.8,192.7z M512.4,232.6c0.3,0.2,0.8,0,0.8,0.5
		c3.6-0.5,6-2.4,7.7-4.7c-1.3-2.8-1.4-6.6-3.5-8.6C515.6,223.5,510.2,227.6,512.4,232.6z"/>
	<path class="st0" d="M727.6,80.7c-25.5,51.9-49.7,109.5-72.2,167.5c-2.7,7.1-5.2,21.9-12,22.3c-5.5,0.3-7.5-6.4-10.7-10.4
		c-5-6-11.2-10.1-13.7-17.1c-3.8-10.4-2.8-24.8-2.2-38.2c1.7-37.9,6.8-77.8,9-113.9c-19.3,57.7-37.4,115.9-55,176.1
		c-2.2,7.5-5.3,20-15.4,17.1c-10.1-2.7-0.2-27.7,1.3-32.7c20.6-73.4,41.4-143.4,67-212.6c2-5.5,3.9-12,6.4-15.1
		c4.1-5.2,12.7-6.4,20.6-9.9c4.9-2,18.2-9.1,23.6-4.2c3.3,3,1.6,16,0.8,24.1c-4.9,57.9-17,105.2-18.1,167.5
		C677.9,145,704.8,90,730.4,35.4c3.6-7.9,7.7-17,13.7-20.1c2.2-1.1,6-1.6,9-2.5c7.1-2.4,14.8-7.1,21.5-7.2c11.8-0.3,8,12.9,6,21.1
		c-19.7,82.6-35.7,168.1-52.4,254.3c-1.3,6.4-1.6,14.9-6,15.9c-7.5,1.7-11.2-7.2-15.4-11.2c-4.7-4.2-13.1-7.4-14.2-13.4
		c-1.1-6.1,2.4-18.9,3.5-24.8C705.5,190.8,716.5,135.4,727.6,80.7z"/>
</g>
</svg>
