<?xml version="1.0" encoding="utf-8"?>
<!-- Generator: Adobe Illustrator 27.8.0, SVG Export Plug-In . SVG Version: 6.00 Build 0)  -->
<svg version="1.1" id="Calque_1" xmlns="http://www.w3.org/2000/svg" xmlns:xlink="http://www.w3.org/1999/xlink" x="0px" y="0px"
	 viewBox="0 0 1125 302" style="enable-background:new 0 0 1125 302;" xml:space="preserve">
<style type="text/css">
	.st0{fill:#1A5938;}
	.st1{fill:#EE3558;}
</style>
<path d="M390.5,209.2c30.1,0,57.5-20.5,57.5-55.4s-26.7-55.4-57.5-55.4c-30.1,0-57.5,20.5-57.5,55.4S359.7,209.2,390.5,209.2
	 M194.1,207.2H216l-50.6-106h-21.2L97,207.2h19.8l10.3-23.9h56.1L194.1,207.2z M744.2,101.1h-80.7v106h82.1v-17.1h-62.9v-27.4h54.1
	v-17.1h-54.1v-27.4h61.6V101.1z M462.3,196.2c4.1,3.4,17.1,12.3,39.7,12.3c22.6,0,41.7-12.3,41.7-31.5c0-40.4-58.2-27.4-58.2-49.3
	c0-6.2,4.8-11.6,18.5-11.6c16.4,0,26.7,7.5,30.8,10.3l7.5-15.7c-4.8-4.8-19.8-12.3-38.3-12.3c-28.1,0-39.7,15.7-39.7,31.5
	c0,36.9,58.2,26,58.2,47.9c0,8.9-8.9,13-19.8,13c-15.7,0-28.7-6.8-34.2-10.9L462.3,196.2z M277.6,117.6c15.7,0,24.6,8.9,30.1,13
	l13-13c-4.1-4.8-17.1-19.2-43.1-19.2c-30.1,0-57.5,20.5-57.5,55.4s26.7,55.4,56.8,55.4c23.3,0,39-12.3,44.5-17.1l-10.3-15.1
	c-8.2,6.8-21.2,13-33.5,13c-21.2,0-36.9-15.7-36.9-36.3C240.7,133.3,256.4,117.6,277.6,117.6 M390.5,190.1
	c-21.2,0-36.9-15.7-36.9-36.3s15.7-36.3,36.9-36.3c21.2,0,36.9,15.7,36.9,36.3C427.4,174.4,411,190.1,390.5,190.1 M591,118.2v88.9
	h19.2v-88.9h36.9v-17.1h-92.4v17.1H591z M27.9,101.1H8.7v106H84v-17.1H27.9V101.1z M153.8,119.6l21.2,47.2h-41.7L153.8,119.6z"/>
<path class="st0" d="M1113.7,184.6c-2.1-1.4-4.1-1.4-6.2-2.1c-2.7-0.7-4.1-4.1-4.8-4.8c-2.1-0.7-4.1,2.7-5.5,2.1
	c-1.4-0.7-2.1-4.8-2.7-4.8c-2.1-0.7-4.1,2.7-5.5,2.1c-1.4-0.7-2.1-4.8-2.7-4.8c-2.1-0.7-4.1,2.7-5.5,2.1c-1.4-0.7-1.4-4.8-2.7-5.5
	c-2.1-0.7-4.1,2.7-6.2,2.1c-1.4,0-4.1-0.7-7.5-3.4c-1.4-0.7-3.4-2.7-3.4-2.7c-0.7,0-1.4-0.7-1.4,1.4c0.7,4.1,8.2,7.5,17.1,10.3
	c8.9,2.7,17.8,4.8,23.3,7.5c3.4,1.4,4.8,3.4,3.4,4.8c-0.7,1.4-3.4,1.4-5.5,0c-2.7-1.4-2.7-3.4-4.8-3.4c-2.1-0.7-4.8,3.4-6.2,2.7
	c-2.1-0.7-2.1-4.8-4.1-5.5c-2.7-0.7-4.8,3.4-6.8,2.7c-1.4,0-2.1-4.8-3.4-5.5c-2.7-0.7-5.5,3.4-6.8,2.7c-1.4,0-2.7-4.8-4.1-5.5
	c-2.7-0.7-6.2,2.7-9.6,0.7c-11.6-7.5-8.9-11.6-17.8-14.4c-4.8-1.4-10.3,0-13,0.7c-7.5,0.7-7.5-5.5-7.5-5.5c2.1,0.7,5.5,2.1,10.9,0
	c6.2-2.1,9.6-2.7,17.8,0c6.8,2.1,10.9,0,13-0.7c1.4,0,2.1-0.7,4.1,0.7c2.1,1.4,4.1,2.7,5.5,2.7c1.4-0.7,1.4-5.5,4.1-6.2
	c1.4-0.7,4.8,3.4,6.2,2.7c1.4-0.7,1.4-5.5,4.1-6.2c1.4-0.7,4.8,3.4,6.2,2.7c1.4-0.7,1.4-5.5,4.1-6.2c1.4-0.7,4.8,3.4,6.2,2.7
	c1.4-0.7,1.4-5.5,4.1-6.2c1.4-0.7,4.8,3.4,6.8,2.7l0,0c1.4-0.7,1.4-2.1,2.7-4.8c0-0.7,0.7-1.4,1.4-2.1c2.1-1.4,4.1-4.8,2.7-8.2
	c-1.4-3.4-4.1-2.7-10.9-1.4c-5.5,1.4-39,8.2-39,8.2c-5.5-9.6-8.9-3.4-16.4-4.1c-4.8-0.7-13-5.5-25.3,6.2c-6.8-2.1-13,0-17.1,2.1
	c-7.5-3.4-21.9-10.3-49.3-10.3c-7.5,0-26,1.4-55.4,9.6c-7.5,2.1-14.4,1.4-16.4-2.7c-2.1-4.8,4.1-9.6,15.7-15.1
	c28.1-13.7,47.2-10.3,84.8-30.1c20.5-10.9,21.9-23.3,21.9-26.7c0-2.1-2.1-2.7-3.4-1.4c-6.8,9.6-8.9,8.9-10.9,6.8
	c-2.7-2.7-4.8,1.4-7.5,4.1c-2.1,2.1-2.7-0.7-4.8-1.4c-3.4-2.1-6.2,4.1-8.9,5.5c-3.4,1.4-4.1,0-4.8-1.4c-0.7-0.7-2.1-0.7-3.4,0
	c-6.2,6.2-7.5,5.5-9.6,3.4c-1.4-1.4-2.1-2.7-6.2,1.4c-2.7,2.7-6.2,5.5-7.5,2.1c-1.4-2.7-2.1-4.8-8.2,0.7c-3.4,3.4-6.2,3.4-6.8,2.1
	c-1.4-1.4-0.7-5.5-6.2-1.4c-4.8,4.1-7.5,6.2-8.9,2.7c-1.4-3.4-5.5-0.7-8.2,2.1c-1.4,1.4-4.1,4.8-6.2,1.4c-2.1-3.4-4.8,0-8.9,4.1
	c-2.1,2.1-4.1,1.4-6.2,0c-2.7-2.1-5.5,4.8-8.9,8.9c-0.7,0.7-1.4,1.4-4.1-0.7c-2.7-2.1-7.5,8.2-8.9,10.9c-2.1,4.1-4.8-1.4-6.8,2.7
	c-5.5,8.2-12.3,17.8-13.7,34.9c-2.1,19.8,5.5,36.3,13,42.4c0,0-0.7,2.1-2.1,4.8c-2.1,5.5-2.7,13,0,17.8c2.7,4.8,8.9,13,10.9,5.5
	c1.4-4.1,2.1-3.4,5.5-0.7c5.5,4.1,4.1-3.4,5.5-5.5c0.7-1.4,2.1-2.1,6.2,0.7c2.7,1.4,3.4-0.7,4.1-4.1c2.7-10.3-2.1-12.3-6.8-13
	c-3.4-0.7-6.8,0-6.8,0c7.5-11.6,8.2-17.8,0-23.3c1.4-0.7,2.1,0,3.4,0c2.1,0.7,4.1,2.7,4.8,4.1c1.4,2.1,2.7,6.8-0.7,14.4
	c1.4,0,7.5,0.7,10.3,6.8c3.4,1.4,27.4,2.7,37.6,1.4c3.4-0.7,5.5-4.1,8.9-7.5c4.1-4.1,8.9-8.2,13-4.8c-6.8,2.7-12.3,8.2-12.3,15.7
	c0,5.5,2.1,7.5,6.2,10.3c3.4,2.7,4.8,7.5,5.5,10.9c1.4,4.8,4.8,4.8,5.5,0.7c0.7-6.2,2.7-4.8,4.8-2.1c2.7,2.7,4.8,2.7,4.8-2.1
	c0-4.1,1.4-6.2,6.2-1.4c2.1,2.1,4.1,2.1,4.1-2.1c0-5.5,2.1-4.8,5.5-2.7c0.7,0.7,1.4,1.4,2.1,1.4c2.1,0,4.1-4.8,2.1-8.2
	c-0.7-2.1-2.1-4.1-13.7-6.8c-4.1-0.7-3.4-3.4-3.4-3.4c28.7,1.4,53.4-2.1,69.8-12.3c19.8,4.8,48.6,5.5,58.2,5.5
	c9.6,0,17.1-0.7,22.6-3.4C1117.8,190.8,1117.1,186.7,1113.7,184.6 M1054.2,139.5c0.7-1.4,2.1-2.7,2.7-2.7c2.1,0,3.4,2.7,3.4,3.4
	l-5.5,1.4C1053.5,141.5,1053.5,140.8,1054.2,139.5 M1040.5,139.5c3.4,0,6.2,2.7,6.2,4.1c0,0-5.5,1.4-8.2,2.1c-1.4,0-2.7-0.7-2.7-1.4
	C1035.7,142.2,1037.1,138.8,1040.5,139.5 M886.5,105.2c2.7-1.4,5.5-2.1,8.2-2.7c0.7,0,0.7,0,0.7,0.7c-0.7,2.1-0.7,3.4-1.4,5.5
	c0,0.7-0.7,0.7-0.7,0.7c-2.1-0.7-4.1-2.1-6.8-3.4C886.5,105.9,886.5,105.2,886.5,105.2 M874.9,110.7c2.7-1.4,5.5-2.1,8.2-2.7
	c0.7,0,0.7,0,0.7,0.7c-0.7,2.1-0.7,3.4-1.4,5.5c0,0.7-0.7,0.7-0.7,0.7c-2.1-0.7-4.1-2.1-6.8-3.4
	C874.2,111.4,874.2,111.4,874.9,110.7 M879.7,123.7c0.7,0,0.7,0,0.7,0.7c-0.7,2.1-0.7,3.4-1.4,5.5c0,0.7-0.7,0.7-0.7,0.7
	c-2.1-0.7-4.1-2.1-6.8-3.4c-0.7,0-0.7-0.7,0-0.7C874.2,125.1,877,123.7,879.7,123.7 M874.9,134c-0.7,2.1-0.7,3.4-1.4,5.5
	c0,0.7-0.7,0.7-0.7,0.7c-2.1-0.7-4.1-2.1-6.8-3.4c-0.7,0-0.7-0.7,0-0.7c2.7-1.4,5.5-2.1,8.2-2.7C874.2,133.3,874.9,133.3,874.9,134
	 M864,118.2c2.7-1.4,5.5-2.1,8.2-2.7c0.7,0,0.7,0,0.7,0.7c-0.7,2.1-0.7,3.4-1.4,5.5c0,0.7-0.7,0.7-0.7,0.7c-2.1-0.7-4.1-2.1-6.8-3.4
	C863.3,118.9,863.3,118.2,864,118.2 M855.1,127.8c2.7-1.4,5.5-2.1,8.2-2.7c0.7,0,0.7,0,0.7,0.7c-0.7,2.1-0.7,3.4-1.4,5.5
	c0,0.7-0.7,0.7-0.7,0.7c-2.1-0.7-4.1-2.1-6.8-3.4V127.8 M852.3,138.8c2.7-1.4,5.5-2.1,8.2-2.7c0.7,0,0.7,0,0.7,0.7
	c-0.7,2.1-0.7,3.4-1.4,5.5c0,0.7-0.7,0.7-0.7,0.7c-2.1-0.7-4.1-2.1-6.8-3.4C851.6,139.5,851.6,138.8,852.3,138.8 M853.7,151.1
	c-0.7,0-0.7-0.7,0-0.7c2.7-1.4,5.5-2.1,8.2-2.7c0.7,0,0.7,0,0.7,0.7c-0.7,2.1-0.7,3.4-1.4,5.5c0,0.7-0.7,0.7-0.7,0.7
	C858.5,153.1,855.8,151.8,853.7,151.1 M868.1,164.1c0,0.7-0.7,0.7-0.7,0.7c-2.1-0.7-4.1-2.1-6.8-3.4c-0.7,0-0.7-0.7,0-0.7
	c2.7-1.4,5.5-2.1,8.2-2.7c0.7,0,0.7,0,0.7,0.7C868.7,160.7,868.1,162,868.1,164.1 M867.4,147.7c-0.7,0-0.7-0.7,0-0.7
	c2.7-1.4,5.5-2.1,8.2-2.7c0.7,0,0.7,0,0.7,0.7c-0.7,2.1-0.7,3.4-1.4,5.5c0,0.7-0.7,0.7-0.7,0.7C871.5,149.7,869.4,149,867.4,147.7
	 M879.7,170.2c0,0.7-0.7,0.7-0.7,0.7c-2.1-0.7-4.1-2.1-6.8-3.4c-0.7,0-0.7-0.7,0-0.7c2.7-1.4,5.5-2.1,8.2-2.7c0.7,0,0.7,0,0.7,0.7
	C880.4,166.8,880.4,168.2,879.7,170.2 M882.4,158.6c0,0.7-0.7,0.7-0.7,0.7c-2.1-0.7-4.1-2.1-6.8-3.4c-0.7,0-0.7-0.7,0-0.7
	c2.7-1.4,5.5-2.1,8.2-2.7c0.7,0,0.7,0,0.7,0.7C883.1,155.2,883.1,156.6,882.4,158.6 M894.1,164.1c-0.7,2.1-0.7,3.4-1.4,5.5
	c0,0.7-0.7,0.7-0.7,0.7c-2.1-0.7-4.1-2.1-6.8-3.4c-0.7,0-0.7-0.7,0-0.7c2.7-1.4,5.5-2.1,8.2-2.7
	C894.1,163.4,894.7,164.1,894.1,164.1 M894.7,157.9c-2.1-0.7-4.1-2.1-6.8-3.4c-0.7,0-0.7-0.7,0-0.7c2.7-1.4,5.5-2.1,8.2-2.7
	c0.7,0,0.7,0,0.7,0.7c-0.7,2.1-0.7,3.4-1.4,5.5C895.4,157.9,895.4,158.6,894.7,157.9 M905,173c-0.7,2.1-0.7,3.4-1.4,5.5
	c0,0.7-0.7,0.7-0.7,0.7c-2.1-0.7-4.1-2.1-6.8-3.4c-0.7,0-0.7-0.7,0-0.7c2.7-1.4,5.5-2.1,8.2-2.7C905,172.3,905,173,905,173
	 M907.7,161.4c-0.7,2.1-0.7,3.4-1.4,5.5c0,0.7-0.7,0.7-0.7,0.7c-2.1-0.7-4.1-2.1-6.8-3.4c-0.7,0-0.7-0.7,0-0.7
	c2.7-1.4,5.5-2.1,8.2-2.7C907.7,160,907.7,160.7,907.7,161.4 M909.1,153.8c0,0.7-0.7,0.7-0.7,0.7c-2.1-0.7-4.1-2.1-6.8-3.4
	c-0.7,0-0.7-0.7,0-0.7c2.7-1.4,5.5-2.1,8.2-2.7c0.7,0,0.7,0,0.7,0.7C910.5,150.4,909.8,151.8,909.1,153.8 M918,174.4
	c0,0.7-0.7,0.7-0.7,0.7c-2.1-0.7-4.1-2.1-6.8-3.4c-0.7,0-0.7-0.7,0-0.7c2.7-1.4,5.5-2.1,8.2-2.7c0.7,0,0.7,0,0.7,0.7
	C918.7,170.9,918,173,918,174.4 M920.1,162.7c0,0.7-0.7,0.7-0.7,0.7c-2.1-0.7-4.1-2.1-6.8-3.4c-0.7,0-0.7-0.7,0-0.7
	c2.7-1.4,5.5-2.1,8.2-2.7c0.7,0,0.7,0,0.7,0.7C921.4,159.3,920.7,161.4,920.1,162.7 M922.1,151.1c-2.1-0.7-4.1-2.1-6.8-3.4
	c-0.7,0-0.7-0.7,0-0.7c2.7-1.4,5.5-2.1,8.2-2.7c0.7,0,0.7,0,0.7,0.7c-0.7,2.1-0.7,3.4-1.4,5.5C922.8,151.1,922.8,151.8,922.1,151.1
	 M933.1,166.1c-0.7,2.1-0.7,3.4-1.4,5.5c0,0.7-0.7,0.7-0.7,0.7c-2.1-0.7-4.1-2.1-6.8-3.4c-0.7,0-0.7-0.7,0-0.7
	c2.7-1.4,5.5-2.1,8.2-2.7C932.4,165.5,933.1,165.5,933.1,166.1 M935.8,154.5c-0.7,2.1-0.7,3.4-1.4,5.5c0,0.7-0.7,0.7-0.7,0.7
	c-2.1-0.7-4.1-2.1-6.8-3.4c-0.7,0-0.7-0.7,0-0.7c2.7-1.4,5.5-2.1,8.2-2.7C935.1,153.8,935.8,153.8,935.8,154.5 M935.8,149
	c-2.1-0.7-4.1-2.1-6.8-3.4c-0.7,0-0.7-0.7,0-0.7c2.7-1.4,5.5-2.1,8.2-2.7c0.7,0,0.7,0,0.7,0.7c-0.7,2.1-0.7,3.4-1.4,5.5
	C936.5,149,936.5,149,935.8,149 M946.7,164.8c-0.7,2.1-0.7,3.4-1.4,5.5c0,0.7-0.7,0.7-0.7,0.7c-2.1-0.7-4.1-2.1-6.8-3.4
	c-0.7,0-0.7-0.7,0-0.7c2.7-1.4,5.5-2.1,8.2-2.7C946.1,164.1,946.7,164.1,946.7,164.8 M948.8,153.1c-0.7,2.1-0.7,3.4-1.4,5.5
	c0,0.7-0.7,0.7-0.7,0.7c-2.1-0.7-4.1-2.1-6.8-3.4c-0.7,0-0.7-0.7,0-0.7c2.7-1.4,5.5-2.1,8.2-2.7
	C948.8,152.5,949.5,152.5,948.8,153.1 M950.2,147.7c0,0.7-0.7,0.7-0.7,0.7c-2.1-0.7-4.1-2.1-6.8-3.4c-0.7,0-0.7-0.7,0-0.7
	c2.7-1.4,5.5-2.1,8.2-2.7c0.7,0,0.7,0,0.7,0.7C950.9,143.6,950.9,145.6,950.2,147.7 M959.7,165.5c-0.7,2.1-0.7,3.4-1.4,5.5
	c0,0.7-0.7,0.7-0.7,0.7c-2.1-0.7-4.1-2.1-6.8-3.4c-0.7,0-0.7-0.7,0-0.7c2.7-1.4,5.5-2.1,8.2-2.7
	C959.7,164.8,959.7,164.8,959.7,165.5 M962.5,153.8c-0.7,2.1-0.7,3.4-1.4,5.5c0,0.7-0.7,0.7-0.7,0.7c-2.1-0.7-4.1-2.1-6.8-3.4
	c-0.7,0-0.7-0.7,0-0.7c2.7-1.4,5.5-2.1,8.2-2.7C962.5,152.5,962.5,153.1,962.5,153.8 M965.2,142.2c-0.7,2.1-0.7,3.4-1.4,5.5
	c0,0.7-0.7,0.7-0.7,0.7c-2.1-0.7-4.1-2.1-6.8-3.4c-0.7,0-0.7-0.7,0-0.7c2.7-1.4,5.5-2.1,8.2-2.7
	C965.2,141.5,965.2,141.5,965.2,142.2 M974.1,161.4c0,0.7-0.7,0.7-0.7,0.7c-2.1-0.7-4.1-2.1-6.8-3.4c-0.7,0-0.7-0.7,0-0.7
	c2.7-1.4,5.5-2.1,8.2-2.7c0.7,0,0.7,0,0.7,0.7C974.8,157.9,974.8,160,974.1,161.4 M978.2,144.2c-0.7,2.1-0.7,3.4-1.4,5.5
	c0,0.7-0.7,0.7-0.7,0.7c-2.1-0.7-4.1-2.1-6.8-3.4c-0.7,0-0.7-0.7,0-0.7c2.7-1.4,5.5-2.1,8.2-2.7
	C978.2,143.6,978.2,143.6,978.2,144.2 M990.5,148.4c-0.7,2.1-0.7,3.4-1.4,5.5c0,0.7-0.7,0.7-0.7,0.7c-2.1-0.7-4.1-2.1-6.8-3.4
	c-0.7,0-0.7-0.7,0-0.7c2.7-1.4,5.5-2.1,8.2-2.7C990.5,147.7,990.5,148.4,990.5,148.4"/>
<path class="st1" d="M1041.8,160c-8.2-2.7-11.6-2.1-17.8,0c-5.5,2.1-8.9,0.7-10.9,0c0,0,0,6.8,7.5,6.2c3.4,0,8.9-2.1,13-0.7
	c8.9,2.7,6.2,6.8,17.8,14.4c3.4,2.1,6.8-2.1,9.6-0.7c1.4,0.7,2.1,5.5,4.1,5.5c1.4,0,4.1-3.4,6.8-2.7c1.4,0.7,2.1,4.8,3.4,5.5
	c1.4,0,4.1-3.4,6.8-2.7c2.1,0.7,2.1,4.8,4.1,5.5c1.4,0.7,4.1-3.4,6.2-2.7c1.4,0.7,2.1,2.7,4.8,3.4c2.7,1.4,4.8,1.4,5.5,0
	c1.4-2.1,0-3.4-3.4-4.8c-5.5-2.7-14.4-4.8-23.3-7.5c-8.9-2.7-16.4-5.5-17.1-10.3c0-2.1,0.7-1.4,1.4-1.4c-3.4-2.7-4.1-4.8-4.1-6.2
	l0,0l0,0l0,0h-0.7C1052.8,160,1048.7,162,1041.8,160"/>
</svg>
