<?xml version="1.0" encoding="utf-8"?>
<!-- Generator: Adobe Illustrator 27.8.0, SVG Export Plug-In . SVG Version: 6.00 Build 0)  -->
<svg version="1.1" id="Layer_1" xmlns="http://www.w3.org/2000/svg" xmlns:xlink="http://www.w3.org/1999/xlink" x="0px" y="0px"
	 viewBox="0 0 1125 302" style="enable-background:new 0 0 1125 302;" xml:space="preserve">
<style type="text/css">
	.st0{fill-rule:evenodd;clip-rule:evenodd;fill:#ED1C24;}
	.st1{fill-rule:evenodd;clip-rule:evenodd;fill:#FFFFFF;}
</style>
<g>
	<path class="st0" d="M265.2,8.2h674.5l-62.4,281.9c-94.8-38.6-185.3-39.7-275.1,0.4c-92.3-40.4-184.2-39.7-277.9-0.4L265.2,8.2
		L265.2,8.2z"/>
	<path class="st0" d="M869.1,291.2c2.9,0,5.4,2.5,5.4,5.4c0,2.9-2.5,5.4-5.4,5.4c-3.2,0-5.4-2.5-5.4-5.4
		C863.6,293.7,865.8,291.2,869.1,291.2L869.1,291.2z M869.1,292.3c-2.5,0-4.3,2.2-4.3,4.3c0,2.2,2.2,4.3,4.3,4.3
		c2.5,0,4.3-2.2,4.3-4.3C873.4,294.4,871.6,292.3,869.1,292.3L869.1,292.3z M868.3,296.2h0.4c0.4,0,0.7,0,0.7,0
		c0.4-0.4,0.4-0.4,0.4-0.4c0-0.4,0-0.4-0.4-0.4c0,0-0.4-0.4-0.7-0.4h-0.4V296.2L868.3,296.2z M866.9,299.5h1.4v-2.2h0.4
		c0.4,0,0.4,0,0.4,0.4c0.4,0,0.4,0.4,0.4,0.4c0,0.4,0,0.4,0,0.7c0.4,0.4,0.4,0.4,0.4,0.7h1.4c0-0.4-0.4-0.4-0.4-1.1
		c0-0.4,0-0.7,0-0.7c-0.4-0.4-0.4-0.4-0.4-0.4c0-0.4-0.4-0.4-0.4-0.4c0.4,0,0.4-0.4,0.7-0.4c0.4-0.4,0.4-0.4,0.4-0.7s0-0.7-0.4-1.1
		c-0.4-0.4-1.1-0.4-1.4-0.4h-2.5V299.5L866.9,299.5z"/>
	<path class="st1" d="M837.7,218.4v-7.2h8.3v7.2H837.7L837.7,218.4z M802,204.3c0-4.3,1.4-8.3,4.7-10.8c3.2-2.5,7.2-3.6,13-3.6
		c5.4,0,9.7,1.4,13,3.6c3.2,2.5,5,6.1,5,10.8c0,4.3-1.4,8.3-5,10.8c-3.2,2.5-7.2,3.6-13,3.6c-5.4,0-9.7-1.4-13-3.6
		C803.8,212.6,802,209,802,204.3L802,204.3z M812.8,204.3c0,2.9,0.4,4.7,1.4,6.1c1.4,1.4,2.9,1.8,5.4,1.8s4.3-0.4,5.4-1.8
		c1.1-1.4,1.4-3.2,1.4-6.1c0-2.9-0.4-4.7-1.4-6.1c-1.1-1.4-2.9-1.8-5.4-1.8s-4,0.4-5.4,1.8C813.2,199.6,812.8,201.8,812.8,204.3
		L812.8,204.3z M789.4,207.6h9.7c-0.4,3.6-1.8,6.1-4.3,8.3c-2.5,2.2-6.1,2.9-10.5,2.9c-5.4,0-9-1.4-11.9-3.6
		c-2.9-2.5-4.3-6.1-4.3-10.8c0-4.3,1.4-8.3,4.3-10.8c2.9-2.5,6.8-3.6,11.9-3.6c4.3,0,8.3,0.7,10.8,2.9c2.5,1.8,4,4.7,4.3,8.3h-9.7
		c0-1.4-0.4-2.5-1.4-3.2c-1.1-0.7-2.5-1.1-4-1.1c-1.8,0-3.2,0.4-4.3,1.8c-0.7,1.4-1.4,3.2-1.4,5.8c0,2.5,0.4,4.3,1.4,5.8
		c1.1,1.4,2.5,1.8,4.3,1.8c1.4,0,2.9-0.4,3.6-1.1C789,210.1,789.4,209,789.4,207.6L789.4,207.6z M747.2,218.4l-2.5-2.5
		c-1.4,1.1-3.2,1.8-5,2.5c-1.8,0.4-4,0.7-6.1,0.7c-3.2,0-5.8-0.7-7.6-2.2c-1.8-1.4-2.9-3.6-2.9-6.1c0-1.8,0.4-3.2,1.4-4.7
		c1.1-1.4,2.9-2.5,5.4-3.6c-1.1-0.7-1.8-1.4-2.5-2.5c-0.4-1.1-0.4-1.8-0.4-2.9c0-2.5,0.7-4.3,2.5-5.4c1.8-1.4,4.3-2.2,7.9-2.2
		c3.2,0,6.1,0.7,7.9,2.2c1.8,1.4,2.9,3.2,2.9,5.8c0,1.4-0.4,2.9-1.4,4.3c-0.7,1.1-2.2,2.2-4,2.9l2.5,2.5c0.4-0.4,0.7-0.4,1.4-1.1
		c0.4-0.4,0.4-0.7,1.1-1.4h8.3c-0.4,1.4-1.4,2.5-2.5,3.6c-0.7,1.1-1.8,2.5-3.2,3.2l7.2,6.5h-10.5V218.4z M740.7,211.5l-4-4
		c-1.1,0.4-1.4,1.1-2.2,1.4c-0.4,0.4-0.7,1.1-0.7,1.8c0,0.4,0.4,1.1,0.7,1.4c0.4,0.4,1.1,0.4,2.2,0.4c0.4,0,1.4,0,2.2-0.4
		C739.3,212.6,740,211.9,740.7,211.5L740.7,211.5z M737.5,198.5c1.1-0.4,1.4-0.7,2.2-1.4c0.4-0.4,0.7-0.7,0.7-1.4
		c0-0.4-0.4-1.1-0.7-1.4c-0.4-0.4-1.1-0.7-1.8-0.7c-0.7,0-1.4,0.4-1.8,0.4c-0.4,0.4-0.4,1.1-0.4,1.4c0,0.4,0,1.1,0.4,1.4
		C736,197.5,736.8,198.2,737.5,198.5L737.5,198.5z M650.2,209.7h10.5c0.4,1.1,0.7,1.8,1.4,2.2c0.7,0.4,1.8,0.7,3.2,0.7
		c1.4,0,2.5-0.4,2.9-0.4c0.7-0.4,1.4-0.7,1.4-1.4c0-1.1-1.4-1.8-4.7-2.5c-0.4-0.4-1.1-0.4-1.4-0.4c-2.5-0.4-4.3-1.1-6.1-1.4
		c-1.4-0.4-2.5-0.7-3.2-1.1c-1.4-0.7-2.5-1.8-2.9-2.9c-0.4-1.1-1.1-2.2-1.1-3.2c0-2.9,1.4-5,4-6.5c2.5-1.4,5.8-2.5,10.1-2.5
		c4.3,0,7.9,0.7,10.1,2.5c2.5,1.4,4,3.6,4.3,6.1h-10.1c-0.4-0.7-0.4-1.4-1.4-1.8c-0.7-0.4-1.4-0.4-2.9-0.4s-2.2,0-2.5,0.4
		c-0.4,0.4-1.1,0.7-1.1,1.4c0,1.1,1.4,1.4,4.3,2.5c0.4,0,0.4,0,0.7,0c0.4,0.4,1.1,0.4,1.8,0.4c4,0.7,6.5,1.4,7.6,2.2
		c1.4,0.7,2.5,1.8,3.2,2.9c0.4,1.1,1.1,2.2,1.1,3.6c0,2.9-1.4,5.4-4,6.8c-2.5,1.8-6.1,2.5-11.2,2.5c-4.3,0-7.9-0.7-10.5-2.5
		C652,214.8,650.6,212.6,650.2,209.7L650.2,209.7z M479.4,209.7h10.5c0.4,1.1,0.7,1.8,1.4,2.2c0.7,0.4,1.8,0.7,3.2,0.7
		c1.4,0,2.2-0.4,2.9-0.4c0.7-0.4,1.1-0.7,1.1-1.4c0-1.1-1.4-1.8-4.3-2.5c-0.4-0.4-1.1-0.4-1.4-0.4c-2.5-0.4-4.3-1.1-6.1-1.4
		c-1.4-0.4-2.5-0.7-3.2-1.1c-1.4-0.7-2.5-1.8-2.9-2.9c-0.7-1.1-1.1-2.2-1.1-3.2c0-2.9,1.4-5,3.6-6.5c2.5-1.4,6.1-2.5,10.5-2.5
		c4.3,0,7.6,0.7,10.1,2.5c2.5,1.4,4,3.6,4.3,6.1h-10.1c-0.4-0.7-0.4-1.4-1.4-1.8c-0.7-0.4-1.8-0.4-3.2-0.4c-1.1,0-1.8,0-2.5,0.4
		c-0.4,0.4-0.7,0.7-0.7,1.4c0,1.1,1.4,1.4,4.3,2.5c0.4,0,0.4,0,0.4,0c0.4,0.4,1.1,0.4,2.2,0.4c4,0.7,6.1,1.4,7.6,2.2
		c1.4,0.7,2.5,1.8,3.2,2.9c0.7,1.1,1.1,2.2,1.1,3.6c0,2.9-1.4,5.4-3.6,6.8c-2.5,1.8-6.1,2.5-11.2,2.5c-4.3,0-7.9-0.7-10.5-2.5
		C481.2,214.8,479.4,212.6,479.4,209.7L479.4,209.7z M681.6,209.7h10.8c0.4,1.1,0.7,1.8,1.4,2.2c0.4,0.4,1.8,0.7,3.2,0.7
		s2.5-0.4,3.2-0.4c0.7-0.4,1.1-0.7,1.1-1.4c0-1.1-1.4-1.8-4.3-2.5c-0.7-0.4-1.1-0.4-1.4-0.4c-2.5-0.4-4.3-1.1-5.8-1.4
		c-1.4-0.4-2.5-0.7-3.2-1.1c-1.4-0.7-2.5-1.8-3.2-2.9c-0.4-1.1-0.7-2.2-0.7-3.2c0-2.9,1.1-5,3.6-6.5c2.5-1.4,6.1-2.5,10.5-2.5
		c4.3,0,7.6,0.7,10.1,2.5c2.5,1.4,3.6,3.6,4.3,6.1h-10.5c0-0.7-0.4-1.4-1.4-1.8c-0.4-0.4-1.4-0.4-2.9-0.4c-1.1,0-2.2,0-2.5,0.4
		s-0.7,0.7-0.7,1.4c0,1.1,1.4,1.4,4.3,2.5c0.4,0,0.4,0,0.4,0c0.4,0.4,1.1,0.4,1.8,0.4c4,0.7,6.5,1.4,7.9,2.2
		c1.4,0.7,2.5,1.8,3.2,2.9c0.7,1.1,1.1,2.2,1.1,3.6c0,2.9-1.4,5.4-4,6.8c-2.5,1.8-6.1,2.5-11.2,2.5c-4.3,0-8.3-0.7-10.8-2.5
		C683.4,214.8,682.3,212.6,681.6,209.7L681.6,209.7z M615.3,191h11.2v16.9c0,1.4,0.4,2.5,1.4,3.2c0.7,0.7,2.2,1.1,4.3,1.1
		c1.8,0,3.2-0.4,4-1.1c0.7-0.4,1.4-1.4,1.4-3.2V191h11.2v17.7c0,3.2-1.4,6.1-4.3,7.9c-2.9,1.8-6.8,2.9-11.9,2.9
		c-5.4,0-9.4-1.1-12.3-2.9c-2.9-1.8-4.3-4.3-4.3-7.9V191H615.3z M591.5,207.9h8.3l-4-9.7L591.5,207.9L591.5,207.9z M575.3,218.4
		L589,191h13l13.7,27.4h-11.9l-2.2-4.7h-12.3l-2.5,4.7H575.3L575.3,218.4z M542.8,218.4V191h15.9c5,0,8.3,0.4,10.8,1.8
		c2.2,1.4,3.2,3.2,3.2,6.1c0,1.8-0.4,3.2-1.4,4.3c-1.1,1.1-2.5,2.2-4.3,2.5c1.8,0.4,3.2,1.1,4.3,1.8c0.7,1.1,1.4,2.5,1.4,4.3
		c0,2.5,0.4,4.3,0.4,6.8H563c-0.4-0.7-0.4-1.4-0.4-1.8c0-0.4,0-0.7,0-1.1V213c0-1.4-0.4-2.5-1.1-2.9c-0.7-0.4-1.8-0.7-3.2-0.7h-4.7
		v9.4h-10.8V218.4z M553.3,202.5h5c1.4,0,2.9-0.4,3.2-0.4c0.7-0.4,1.1-1.1,1.1-2.2c0-0.7-0.4-1.4-1.1-2.2c-0.4-0.4-1.8-0.4-3.6-0.4
		h-4.7V202.5L553.3,202.5z M520.5,218.4v-22h-10.1V191H541v5.4h-9.7v22H520.5L520.5,218.4z M454.5,218.4V191h9.4v27.4H454.5
		L454.5,218.4z M414.8,191H426l8.3,18l7.9-18h10.1l-12.6,27.4h-11.2L414.8,191L414.8,191z M387.8,218.4V191H413v5.4h-15.1v4.7h13.7
		v6.1h-13.7v5.4h15.9v5.8H387.8L387.8,218.4z M360.8,218.4V191h9.7v21.6h13.7v5.8H360.8L360.8,218.4z"/>
	<path class="st1" d="M807.4,149.9c11.2,0,20.2-4.3,17.7-16.6l-0.4-1.4c-3.6-10.5-17.7-11.2-27.4-11.9c-20.9-1.8-40.7-5.4-42.5-30.3
		c-0.4-29.6,35-34.2,57.7-33.9c18.7,1.1,49.7,8.3,47.9,32.8h-37.1c-0.4-4.3-2.2-7.6-5.4-10.5c-6.5-5.4-20.9-6.1-26.7,0.4
		c-4.3,5.4-3.6,10.8-1.4,14.1c4,5.8,14.1,8.3,21.6,9c16.6,2.5,40.7,2.5,49,20.5c3.2,8.3,2.5,17.7-1.1,25.6
		c-7.2,15.1-25.6,20.5-41.5,22.4c-25.6,1.8-64.2-1.4-65.6-35h36.4C790.5,145.9,796.6,149.9,807.4,149.9L807.4,149.9z M712.2,60.1
		v107.8h-31.7V60.1H712.2L712.2,60.1z M579.9,60.1l22.7,77.9l22.7-77.9h37.9l-42.5,107.8h-36.4L542.5,60.1H579.9L579.9,60.1z
		 M383.8,60.1V143h36.8v24.9h-69.2V60.1H383.8L383.8,60.1z M475.8,170.4c-27.4-3.2-44.3-22.7-45.4-52.3l-0.4-3.2
		c0.4-37.9,14.8-58,52.6-58c29.2,0.4,50.1,8.7,54.8,39.3c1.4,8.3,1.4,16.6,1.4,24.9h-73.9c-3.2,14.4,2.5,23.4,10.8,27.4
		c9,4,21.6,0.7,26.3-11.2h34.2C528.4,165.7,504.2,172.9,475.8,170.4L475.8,170.4z M503.5,104.1c-0.4-11.2,0.7-22.4-11.9-26.7
		c-5.4-1.4-11.9-1.4-17.3,0.4c-11.2,5.4-9.4,15.9-9.7,26.3H503.5L503.5,104.1z M739.3,73.4c9-3.2,15.9-15.9,12.6-24.9
		c-1.4-4.3-4.7-7.2-9-8.3c-3.2-1.1-6.1-1.4-9-0.4c-4.7,1.4-8.3,4.7-9.7,9.7c-1.4,7.2,3.6,13.3,10.8,14.8c2.5,0.7,5,1.4,8.3,1.4
		c-0.4,2.5-2.2,5.4-5,7.9L739.3,73.4L739.3,73.4z"/>
</g>
</svg>
