<?xml version="1.0" encoding="utf-8"?>
<!-- Generator: Adobe Illustrator 27.8.0, SVG Export Plug-In . SVG Version: 6.00 Build 0)  -->
<svg version="1.1" id="Layer_1" xmlns="http://www.w3.org/2000/svg" xmlns:xlink="http://www.w3.org/1999/xlink" x="0px" y="0px"
	 viewBox="0 0 1125 302" style="enable-background:new 0 0 1125 302;" xml:space="preserve">
<g>
	<g>
		<path d="M180.5,4c12.5,2,25.2,2.9,37.3,6.2c49.9,13.6,87.3,42.7,103.6,92.8c17.3,53.2,10.4,103.6-27.4,146.8
			c-23.7,27.2-55.1,41.2-90.3,47c-9.7,1.6-19.5,2.1-29.2,3.1c-2,0-4,0-6,0c-9.8-1-19.6-1.5-29.2-3.1c-35.7-5.9-67.3-20.4-91.4-48.1
			C13.5,209.2,5.7,162.6,18.5,113C32.8,57.7,71.1,25.1,125.2,10.2C137.3,6.9,150,6,162.5,4C168.5,4,174.5,4,180.5,4z M224.6,154.7
			c0-1.8,0.1-3.7,0-5.5c-1.4-26.3-21.1-47.9-45.8-50.2c-29.3-2.8-52.2,12.2-58.6,39.6c-5.3,22.6-1.7,43.6,17.2,58.9
			c17.8,14.4,38.4,15.6,58.8,6C216.4,194,224.2,176.2,224.6,154.7z"/>
		<path d="M540.7,147.5c2.3,1,4.2,1.8,6.1,2.6c45.6,19,60.3,74.7,29.5,112c-13.3,16.1-31.4,24.6-51.4,28.6
			c-12.3,2.5-25.1,4-37.6,4.1c-45,0.5-90,0.2-135,0.2c-2,0-4,0-6.4,0c0-95.2,0-190.2,0-285.7c1-0.1,2.3-0.4,3.6-0.4
			c43.7,0,87.3-0.2,131,0.3c19.7,0.2,39.1,3.4,57.3,11.7c25.9,11.8,38.8,32.3,40.6,60.3c0.9,13.7-0.9,26.9-7.5,39.2
			c-5.7,10.8-14,18.9-25.4,23.8c-1.2,0.5-2.4,1.1-3.6,1.6C541.8,145.9,541.6,146.3,540.7,147.5z M442.6,179.3c0,15.8,0,31.2,0,47.1
			c12.9,0.1,25.7,1.2,38.1-3c9.9-3.3,14.8-10.6,14.8-20.7c0-10.1-5.2-17.3-15.1-20.5C468.1,178.4,455.5,179.1,442.6,179.3z
			 M442.4,77.6c0,14.3,0,27.5,0,42.3c9.9-1.2,19.4-1.5,28.5-3.6c9.6-2.3,13.6-10.1,12.7-21.5c-0.7-8.7-5.8-14.5-15.3-15.7
			C459.8,78,451.3,78,442.4,77.6z"/>
		<path d="M712.5,188.6c0,9.6,0,18.4,0,27.9c30,0,59.9,0,90.1,0c0,26.4,0,52.2,0,78.2c-64.9,0-129.7,0-194.8,0c0-95,0-190,0-285.4
			c63.8,0,127.7,0,191.9,0c0,25.8,0,51.4,0,77.5c-28.9,0-57.8,0-87,0c0,9.3,0,18,0,27.2c26.3,0,52.6,0,79.2,0c0,25,0,49.6,0,74.6
			C765.6,188.6,739.3,188.6,712.5,188.6z"/>
		<path d="M815.1,8.9c6.9,0,12.7,0,18.5,0c31.5,0,63,0.1,94.5-0.1c3.5,0,5.2,1,6.6,4.3c9.2,22.1,18.7,44.1,28.1,66.1
			c0.6,1.5,2.1,2.6,3.2,3.9c0.9-1.4,2.1-2.7,2.8-4.2c9.1-22.3,18.1-44.7,27.3-66.9c0.6-1.5,3-2.6,4.7-3.3c1.3-0.5,3-0.2,4.5-0.2
			c34,0,68,0,102,0c2,0,4,0,7,0c-1.2,2.1-1.8,3.5-2.6,4.9c-30.9,51.5-61.9,103-92.8,154.6c-1.4,2.4-2.2,5.6-2.2,8.4
			c-0.1,37.5-0.1,75-0.1,112.5c0,1.8,0,3.6,0,5.8c-33.9,0-67.5,0-101.8,0c0-1.9,0-3.8,0-5.7c0-37.2,0.1-74.3-0.1-111.5
			c0-3.6-1.2-7.6-3-10.6C880.3,115.6,849,64.5,817.6,13.4C816.9,12.2,816.2,10.9,815.1,8.9z"/>
	</g>
</g>
</svg>
