<?xml version="1.0" encoding="utf-8"?>
<!-- Generator: Adobe Illustrator 27.8.0, SVG Export Plug-In . SVG Version: 6.00 Build 0)  -->
<svg version="1.1" id="Layer_1" xmlns="http://www.w3.org/2000/svg" xmlns:xlink="http://www.w3.org/1999/xlink" x="0px" y="0px"
	 viewBox="0 0 1125 302" style="enable-background:new 0 0 1125 302;" xml:space="preserve">
<style type="text/css">
	.st0{fill:#95BF47;}
	.st1{fill:#5E8E3E;}
	.st2{fill:#FFFFFF;}
</style>
<g>
	<g>
		<path class="st0" d="M265.7,58.9c-0.2-1.4-1.4-2.3-2.6-2.3c-1.2,0-23.3-1.6-23.3-1.6s-15.4-15.4-17.2-17c-1.6-1.6-5.1-1.2-6.3-0.7
			c-0.2,0-3.5,0.9-8.6,2.6c-5.1-14.9-14.2-28.7-30.3-28.7c-0.5,0-0.9,0-1.4,0c-4.7-6.1-10.3-8.6-15.1-8.6
			c-37.5,0-55.2,46.8-60.8,70.6c-14.4,4.4-24.9,7.7-26.1,8.2c-8.2,2.6-8.4,2.8-9.3,10.5c-0.7,5.8-22.1,169.8-22.1,169.8l165.4,31
			l89.7-19.3C297.4,273.1,265.9,60.3,265.7,58.9z M198.6,42.4c-4.2,1.4-8.9,2.8-14,4.4c0-0.9,0-1.9,0-3c0-9.3-1.4-16.8-3.3-22.6
			C189.5,22.1,195.1,31.7,198.6,42.4z M170.9,23.1c2.3,5.8,3.7,14,3.7,25.2c0,0.5,0,1.2,0,1.6c-9.1,2.8-19.1,5.8-28.9,8.9
			C151.3,37.3,161.8,27,170.9,23.1z M159.9,12.6c1.6,0,3.3,0.5,4.9,1.6c-11.9,5.6-24.9,19.8-30.3,48.2c-7.9,2.6-15.6,4.9-22.8,7
			C118,47.8,132.9,12.6,159.9,12.6z"/>
		<path class="st1" d="M263.1,56.6c-1.2,0-23.3-1.6-23.3-1.6s-15.4-15.4-17.2-17c-0.7-0.7-1.4-0.9-2.3-1.2l-12.6,255.8l89.7-19.3
			c0,0-31.5-212.7-31.7-214.1C265.5,57.5,264.3,56.6,263.1,56.6z"/>
		<path class="st2" d="M177.4,106l-10.9,32.8c0,0-9.8-5.1-21.4-5.1c-17.5,0-18.2,10.9-18.2,13.7c0,14.9,39.1,20.7,39.1,55.9
			c0,27.7-17.5,45.4-41.2,45.4c-28.4,0-42.9-17.7-42.9-17.7l7.7-25.2c0,0,14.9,12.8,27.5,12.8c8.2,0,11.6-6.5,11.6-11.2
			c0-19.6-32.2-20.5-32.2-52.7c0-27,19.3-53.4,58.7-53.4C169.9,101.8,177.4,106,177.4,106z"/>
	</g>
	<path id="s" d="M401.7,167.7c-8.9-4.9-13.5-8.9-13.5-14.4c0-7.2,6.3-11.6,16.3-11.6c11.6,0,21.9,4.9,21.9,4.9l8.2-24.9
		c0,0-7.5-5.8-29.6-5.8c-30.8,0-52.2,17.7-52.2,42.4c0,14,10,24.7,23.3,32.4c10.7,6.1,14.4,10.5,14.4,16.8c0,6.8-5.4,12.1-15.4,12.1
		c-14.9,0-28.9-7.7-28.9-7.7l-8.6,24.9c0,0,13,8.6,34.7,8.6c31.7,0,54.3-15.6,54.3-43.6C427.1,186.4,415.7,175.7,401.7,167.7z"/>
	<path id="h" d="M528,115.1c-15.6,0-27.7,7.5-37.3,18.6l-0.5-0.2l13.5-70.8h-35.2l-34.2,180.1h35.2l11.6-61.5
		c4.7-23.3,16.5-37.5,27.7-37.5c7.9,0,10.9,5.4,10.9,13c0,4.9-0.5,10.7-1.6,15.6L505,243h35.2l13.7-72.7c1.6-7.7,2.6-16.8,2.6-23.1
		C556.9,127.2,546.4,115.1,528,115.1z"/>
	<path id="o" d="M636.6,115.1c-42.4,0-70.6,38.2-70.6,80.8c0,27.3,16.8,49.4,48.5,49.4c41.7,0,69.7-37.3,69.7-80.8
		C684.3,139.1,669.4,115.1,636.6,115.1z M619.1,218.3c-12.1,0-17-10.3-17-23.1c0-20.3,10.5-53.1,29.6-53.1
		c12.6,0,16.5,10.7,16.5,21.2C648.2,185,637.8,218.3,619.1,218.3z"/>
	<path id="p" d="M774.5,115.1c-23.8,0-37.3,21-37.3,21h-0.5l2.1-18.9h-31.2c-1.6,12.8-4.4,32.2-7.2,46.8L676,293.1h35.2l9.8-52.2
		h0.7c0,0,7.2,4.7,20.7,4.7c41.5,0,68.5-42.4,68.5-85.3C810.6,136.3,800.1,115.1,774.5,115.1z M740.7,218.8
		c-9.1,0-14.4-5.1-14.4-5.1l5.8-32.8c4.2-21.9,15.6-36.6,27.7-36.6c10.7,0,14,10,14,19.3C774,186.4,760.3,218.8,740.7,218.8z"/>
	<path id="dot" d="M860.9,64.5c-11.2,0-20.3,8.9-20.3,20.5c0,10.5,6.5,17.7,16.5,17.7h0.5c10.9,0,20.5-7.5,20.7-20.5
		C878.6,72,871.7,64.5,860.9,64.5z"/>
	<polygon id="i" points="811.8,242.8 847,242.8 871,117.9 835.5,117.9 	"/>
	<path id="f" d="M960.7,117.7h-24.5l1.2-5.8c2.1-12.1,9.1-22.8,21-22.8c6.3,0,11.2,1.9,11.2,1.9l7-27.5c0,0-6.1-3-19.1-3
		c-12.6,0-24.9,3.5-34.5,11.6c-12.1,10.3-17.7,24.9-20.5,39.8l-0.9,5.8h-16.3l-5.1,26.6h16.3l-18.6,98.5h35.2l18.6-98.5h24.2
		L960.7,117.7z"/>
	<path id="y" d="M1045.5,117.9c0,0-22.1,55.4-31.9,85.7h-0.5c-0.7-9.8-8.6-85.7-8.6-85.7h-37l21.2,114.6c0.5,2.6,0.2,4.2-0.7,5.8
		c-4.2,7.9-10.9,15.6-19.1,21.2c-6.5,4.9-14,7.9-19.8,10l9.8,29.8c7.2-1.6,21.9-7.5,34.5-19.1c16.1-15.1,31-38.2,46.1-69.9
		l43.1-92.5L1045.5,117.9L1045.5,117.9z"/>
</g>
</svg>
